<?xml version="1.0" encoding="UTF-8"?>
<svg viewBox="0 0 800 500" xmlns="http://www.w3.org/2000/svg">
  <defs>
        <linearGradient id="bgGradient" x1="0%" y1="0%" x2="100%" y2="100%">
      <stop offset="0%" stop-color="#1a1a2e" />
      <stop offset="100%" stop-color="#16213e" />
    </linearGradient>
    
        <filter id="glow" x="-20%" y="-20%" width="140%" height="140%">
      <feGaussianBlur stdDeviation="5" result="blur"/>
      <feComposite in="SourceGraphic" in2="blur" operator="over"/>
    </filter>
    
        <filter id="pulse" x="-20%" y="-20%" width="140%" height="140%">
      <feGaussianBlur in="SourceGraphic" stdDeviation="2" result="blur"/>
      <feColorMatrix in="blur" mode="matrix" values="1 0 0 0 0  0 1 0 0 0  0 0 1 0 0  0 0 0 18 -7" result="glow"/>
      <feComposite in="SourceGraphic" in2="glow" operator="over"/>
    </filter>
    
        <animate id="dataFlowAnim" attributeName="offset" from="0%" to="100%" dur="3s" repeatCount="indefinite" />
  </defs>
  
    <rect width="800" height="500" fill="url(#bgGradient)" />
  
    <g id="title" transform="translate(-50, -10)">     <text x="760" y="100" font-family="Arial, sans-serif" font-size="20" fill="#ffffff" text-anchor="middle" font-weight="bold">The</text>
    <text x="760" y="125" font-family="Arial, sans-serif" font-size="20" fill="#ffffff" text-anchor="middle" font-weight="bold">Evolution</text>
    <text x="760" y="150" font-family="Arial, sans-serif" font-size="20" fill="#ffffff" text-anchor="middle" font-weight="bold">of AI</text>
    <text x="760" y="175" font-family="Arial, sans-serif" font-size="20" fill="#ffffff" text-anchor="middle" font-weight="bold">in IoT</text>
  </g>
  
    <g id="evolution" transform="translate(0, -15)">     <path d="M50,50 L500,50" stroke="#adb5bd" stroke-width="1" opacity="0.5" />
    
    <g transform="translate(150, 50)">
      <circle cx="0" cy="0" r="5" fill="#90e0ef" />
      <text x="0" y="-15" font-family="Arial, sans-serif" font-size="10" fill="white" text-anchor="middle">Basic Connectivity</text>
    </g>
    
    <g transform="translate(325, 50)">
      <circle cx="0" cy="0" r="5" fill="#90e0ef" />
      <text x="0" y="-15" font-family="Arial, sans-serif" font-size="10" fill="white" text-anchor="middle">Data Processing</text>
    </g>
    
    <g transform="translate(500, 50)">
      <circle cx="0" cy="0" r="5" fill="#fb8500" />
      <text x="0" y="-15" font-family="Arial, sans-serif" font-size="10" fill="#fb8500" text-anchor="middle">Intelligent Devices</text>
      
            <circle cx="0" cy="0" r="8" fill="none" stroke="#fb8500" stroke-width="2">
        <animate attributeName="r" from="8" to="12" dur="2s" repeatCount="indefinite" />
        <animate attributeName="opacity" from="1" to="0" dur="2s" repeatCount="indefinite" />
      </circle>
    </g>
  </g>

    <g id="cloud" transform="translate(400, 100)">
    <ellipse cx="0" cy="0" rx="100" ry="45" fill="#4a6fa5" opacity="0.7" />
    <text x="0" y="5" font-family="Arial, sans-serif" font-size="18" fill="white" text-anchor="middle">Cloud Computing</text>
    
        <animate attributeName="opacity" values="0.7;0.9;0.7" dur="4s" repeatCount="indefinite" />
  </g>
  
    <g id="edge" transform="translate(650, 230)">
    <rect x="-80" y="-40" width="160" height="80" rx="10" ry="10" fill="#3a506b" opacity="0.8" />
    <text x="0" y="5" font-family="Arial, sans-serif" font-size="18" fill="white" text-anchor="middle">Edge Computing</text>
    
        <animate attributeName="opacity" values="0.8;1;0.8" dur="3s" repeatCount="indefinite" />
  </g>
  
    <g id="iot-devices">
        <g transform="translate(80, 250)">
      <rect x="-40" y="-40" width="80" height="80" rx="5" ry="5" fill="#1e3a5f" stroke="#4cc9f0" stroke-width="2" />
      <text x="0" y="50" font-family="Arial, sans-serif" font-size="14" fill="white" text-anchor="middle">Smart Home</text>
      
            <path d="M-20,-20 L20,-20 L20,20 L-20,20 Z M-10,-10 L10,-10 L10,10 L-10,10 Z" stroke="#4cc9f0" fill="none" stroke-width="1.5" />
    </g>
    
        <g transform="translate(230, 340)">
      <rect x="-40" y="-40" width="80" height="80" rx="5" ry="5" fill="#1e3a5f" stroke="#4cc9f0" stroke-width="2" />
      <text x="0" y="50" font-family="Arial, sans-serif" font-size="14" fill="white" text-anchor="middle">Industrial IoT</text>
      
            <path d="M-20,-20 L20,-20 L20,20 L-20,20 Z M-15,-15 L15,-15 M-15,0 L15,0 M-15,15 L15,15" stroke="#4cc9f0" fill="none" stroke-width="1.5" />
    </g>
    
        <g transform="translate(150, 150)">
      <rect x="-40" y="-40" width="80" height="80" rx="5" ry="5" fill="#1e3a5f" stroke="#4cc9f0" stroke-width="2" />
      <text x="0" y="50" font-family="Arial, sans-serif" font-size="14" fill="white" text-anchor="middle">Healthcare IoT</text>
      
            <path d="M0,-20 L0,20 M-20,0 L20,0" stroke="#4cc9f0" fill="none" stroke-width="2" />
    </g>
  </g>
  
    <g id="ai" transform="translate(400, 290)">
    <circle cx="0" cy="0" r="60" fill="#4361ee" opacity="0.7" />
    <text x="0" y="5" font-family="Arial, sans-serif" font-size="20" fill="white" text-anchor="middle">AI</text>
    
        <path d="M-25,-18 C-18,-28 -8,-23 0,-28 C8,-23 18,-28 25,-18 C35,-8 25,0 35,8 C25,18 18,28 0,23 C-18,28 -25,18 -35,8 C-25,0 -35,-8 -25,-18" stroke="white" fill="none" stroke-width="1.5" />
    
        <animate attributeName="opacity" values="0.7;0.9;0.7" dur="2s" repeatCount="indefinite" />
  </g>
  
      <g id="cloud-connections">
    <path d="M300,110 L190,150" stroke="#4cc9f0" stroke-width="2" stroke-dasharray="5,5" opacity="0.6">       <animate attributeName="stroke-dashoffset" from="0" to="20" dur="2s" repeatCount="indefinite" />
    </path>
    <path d="M360,140 L120,250" stroke="#4cc9f0" stroke-width="2" stroke-dasharray="5,5" opacity="0.6">       <animate attributeName="stroke-dashoffset" from="0" to="20" dur="3s" repeatCount="indefinite" />
    </path>
    <path d="M400,145 L270,340" stroke="#4cc9f0" stroke-width="2" stroke-dasharray="5,5" opacity="0.6">       <animate attributeName="stroke-dashoffset" from="0" to="20" dur="2.5s" repeatCount="indefinite" />
    </path>
  </g>
  
    <g id="edge-connections">
    <path d="M570,250 L270,340" stroke="#fb8500" stroke-width="2" stroke-dasharray="5,5" opacity="0.8">       <animate attributeName="stroke-dashoffset" from="0" to="-20" dur="1.5s" repeatCount="indefinite" />
    </path>
    <path d="M570,230 L120,250" stroke="#fb8500" stroke-width="2" stroke-dasharray="5,5" opacity="0.8">       <animate attributeName="stroke-dashoffset" from="0" to="-20" dur="1.3s" repeatCount="indefinite" />
    </path>
    <path d="M570,210 L190,150" stroke="#fb8500" stroke-width="2" stroke-dasharray="5,5" opacity="0.8">       <animate attributeName="stroke-dashoffset" from="0" to="-20" dur="1.7s" repeatCount="indefinite" />
    </path>
  </g>
  
    <g id="ai-connections">
        <path d="M460,280 L570,230" stroke="#f72585" stroke-width="3" opacity="0.7">       <animate attributeName="opacity" values="0.7;1;0.7" dur="2s" repeatCount="indefinite" />
    </path>
    
        <path d="M400,230 L400,145" stroke="#f72585" stroke-width="3" opacity="0.7">       <animate attributeName="opacity" values="0.7;1;0.7" dur="2.3s" repeatCount="indefinite" />
    </path>
    
        <path d="M350,250 L190,150" stroke="#f72585" stroke-width="3" opacity="0.7">       <animate attributeName="opacity" values="0.7;1;0.7" dur="2.5s" repeatCount="indefinite" />
    </path>
    <path d="M340,290 L120,250" stroke="#f72585" stroke-width="3" opacity="0.7">       <animate attributeName="opacity" values="0.7;1;0.7" dur="1.8s" repeatCount="indefinite" />
    </path>
    <path d="M360,330 L270,340" stroke="#f72585" stroke-width="3" opacity="0.7">       <animate attributeName="opacity" values="0.7;1;0.7" dur="2.2s" repeatCount="indefinite" />
    </path>
  </g>
  
    <g id="benefits" transform="translate(650, 425)">
    <rect x="-120" y="-60" width="240" height="120" rx="10" ry="10" fill="#003566" opacity="0.8" />
    <text x="0" y="-30" font-family="Arial, sans-serif" font-size="14" fill="white" text-anchor="middle" font-weight="bold">Key Benefits:</text>
    <text x="0" y="-10" font-family="Arial, sans-serif" font-size="12" fill="white" text-anchor="middle">• Reduced Latency</text>
    <text x="0" y="10" font-family="Arial, sans-serif" font-size="12" fill="white" text-anchor="middle">• Enhanced Privacy</text>
    <text x="0" y="30" font-family="Arial, sans-serif" font-size="12" fill="white" text-anchor="middle">• Predictive Analytics</text>
    <text x="0" y="50" font-family="Arial, sans-serif" font-size="12" fill="white" text-anchor="middle">• Personalized Experiences</text>
  </g>
  
    
    <g id="future" transform="translate(400, 490)">
    <text x="0" y="0" font-family="Arial, sans-serif" font-size="16" fill="#e9c46a" text-anchor="middle" font-style="italic">
      Are we prepared for the age of intelligent, interconnected devices?
    </text>
    
        <animate attributeName="opacity" values="1;0.7;1" dur="5s" repeatCount="indefinite" />
  </g>
</svg>